<svg width="40" height="26" viewBox="0 0 40 26" fill="none" xmlns="http://www.w3.org/2000/svg">
<path d="M39.315 0H0.684964C0.5033 0 0.329077 0.0732456 0.200621 0.203625C0.0721657 0.334003 0 0.510836 0 0.695219V25.3048C0 25.4892 0.0721657 25.666 0.200621 25.7964C0.329077 25.9268 0.5033 26 0.684964 26H39.315C39.4967 26 39.6709 25.9268 39.7994 25.7964C39.9278 25.666 40 25.4892 40 25.3048V0.695219C40 0.510836 39.9278 0.334003 39.7994 0.203625C39.6709 0.0732456 39.4967 0 39.315 0ZM32.5774 15.0331C32.6846 15.5259 32.7954 16.0355 32.6513 16.2882C32.4966 16.5596 31.9966 16.7173 31.5131 16.8699C31.1316 16.9902 30.7373 17.1147 30.3857 17.3212C30.0461 17.5206 29.7523 17.8001 29.4683 18.0704C29.0772 18.4426 28.7079 18.794 28.374 18.794C28.04 18.794 27.6706 18.4425 27.2797 18.0704C26.9956 17.8001 26.7018 17.5205 26.3622 17.3212C26.0107 17.1147 25.6163 16.9903 25.2348 16.8699C24.7513 16.7173 24.2513 16.5596 24.0967 16.2882C23.9526 16.0355 24.0633 15.5259 24.1705 15.0331C24.2584 14.6285 24.3493 14.2103 24.3493 13.7821C24.3493 13.354 24.2584 12.9356 24.1705 12.5311C24.0633 12.0383 23.9526 11.5288 24.0967 11.2759C24.2513 11.0046 24.7513 10.8468 25.2348 10.6942C25.6163 10.5739 26.0107 10.4494 26.3622 10.243C26.7018 10.0435 26.9956 9.76403 27.2797 9.49373C27.6706 9.12165 28.04 8.77015 28.374 8.77015C28.7079 8.77015 29.0773 9.12165 29.4683 9.49373C29.7523 9.76403 30.0461 10.0435 30.3857 10.243C30.7373 10.4493 31.1316 10.5738 31.5131 10.6941C31.9966 10.8467 32.4966 11.0045 32.6512 11.2758C32.7954 11.5286 32.6846 12.0381 32.5774 12.5309C32.4895 12.9354 32.3986 13.3537 32.3986 13.7819C32.3986 14.2102 32.4895 14.6286 32.5774 15.0331ZM30.5975 8.66076C30.5345 8.60237 30.4705 8.54156 30.4053 8.47955C29.8904 7.98955 29.2497 7.3798 28.374 7.3798C27.4982 7.3798 26.8575 7.98955 26.3426 8.47955C26.1045 8.70609 25.8796 8.92013 25.6761 9.03961C25.4574 9.168 25.1518 9.26449 24.8281 9.36655C24.1276 9.58763 23.3336 9.8381 22.9109 10.5797C22.5001 11.3004 22.6768 12.1134 22.8328 12.8307C22.9081 13.1777 22.9794 13.5055 22.9794 13.7821C22.9794 14.0587 22.9081 14.3866 22.8328 14.7336C22.6975 15.3556 22.5473 16.0496 22.7775 16.693L19.9997 19.5464L2.32449 1.39044H37.6748L30.5975 8.66076ZM11.7007 13L1.36993 23.6116V2.38812L11.7007 13ZM12.6635 13.989L19.5124 21.0242C19.5761 21.0896 19.6519 21.1416 19.7356 21.177C19.8192 21.2125 19.9089 21.2308 19.9996 21.2308C20.0902 21.2308 20.18 21.2125 20.2636 21.177C20.3472 21.1416 20.4231 21.0896 20.4868 21.0242L23.6841 17.7398C24.044 17.9494 24.4495 18.0781 24.8281 18.1976C25.1518 18.2997 25.4575 18.3962 25.6761 18.5245C25.8796 18.644 26.1044 18.8581 26.3426 19.0846C26.8575 19.5746 27.4982 20.1844 28.374 20.1844C29.2496 20.1844 29.8904 19.5746 30.4053 19.0846C30.6434 18.858 30.8682 18.644 31.0718 18.5244C31.2043 18.4466 31.3691 18.3806 31.5502 18.3179L37.675 24.6094H2.32431L12.6635 13.989ZM32.9664 17.7946C33.3117 17.6108 33.6223 17.3612 33.8371 16.9846C34.2479 16.2639 34.0711 15.4508 33.9151 14.7336C33.8398 14.3866 33.7686 14.0587 33.7686 13.7821C33.7686 13.5055 33.8398 13.1777 33.9151 12.8307C34.0711 12.1134 34.2479 11.3005 33.837 10.5797C33.4142 9.8381 32.6203 9.58763 31.9197 9.36655L31.8559 9.34634L38.6301 2.38738V23.6122L32.9664 17.7946Z" fill="#F1CDB3"/>
<path d="M28.374 10.2424C26.451 10.2424 24.8865 11.8302 24.8865 13.782C24.8865 15.7337 26.451 17.3215 28.374 17.3215C30.297 17.3215 31.8614 15.7337 31.8614 13.782C31.8614 11.8302 30.2969 10.2424 28.374 10.2424ZM28.374 15.9311C27.2064 15.9311 26.2564 14.967 26.2564 13.782C26.2564 12.5969 27.2063 11.6328 28.374 11.6328C29.5416 11.6328 30.4915 12.5969 30.4915 13.782C30.4915 14.967 29.5415 15.9311 28.374 15.9311Z" fill="#F1CDB3"/>
</svg>
