<svg width="32" height="60" viewBox="0 0 32 60" fill="none" xmlns="http://www.w3.org/2000/svg">
<path d="M24.1303 17.1814V11.7391C24.1303 11.0188 23.5463 10.4348 22.826 10.4348H21.8477V1.3043C21.8477 0.583945 21.2637 0 20.5434 0H12.0651C11.3448 0 10.7608 0.583945 10.7608 1.3043V10.4347H9.78253C9.06218 10.4347 8.47823 11.0187 8.47823 11.739V17.1813C3.89772 19.0078 0.6521 23.4879 0.6521 28.712V58.6956C0.6521 59.4159 1.23604 59.9999 1.9564 59.9999H30.6521C31.3725 59.9999 31.9564 59.4159 31.9564 58.6956V28.7121C31.9563 23.4879 28.7107 19.0078 24.1303 17.1814ZM13.3694 2.60871H19.239V10.4348H13.3694V2.60871ZM11.0867 13.0434H21.5214V16.3043H11.0867V13.0434ZM29.3476 57.3913H3.26069V28.7121C3.26069 23.3088 7.65651 18.913 13.0597 18.913H19.5486C24.9519 18.913 29.3476 23.3088 29.3476 28.7121V57.3913Z" fill="#F1CDB3"/>
<path d="M24.7825 27.3913H7.82591C7.10556 27.3913 6.52161 27.9752 6.52161 28.6956V52.826C6.52161 53.5464 7.10556 54.1303 7.82591 54.1303H24.7825C25.5028 54.1303 26.0868 53.5464 26.0868 52.826V44.6287C26.0868 43.9084 25.5028 43.3244 24.7825 43.3244C24.0621 43.3244 23.4782 43.9084 23.4782 44.6287V51.5217H9.13033V30H23.4782V34.1287C23.4782 34.8491 24.0621 35.433 24.7825 35.433C25.5028 35.433 26.0868 34.8491 26.0868 34.1287V28.6957C26.0868 27.9752 25.5028 27.3913 24.7825 27.3913Z" fill="#F1CDB3"/>
<path d="M24.7824 38.0645C24.0621 38.0645 23.4781 38.6484 23.4781 39.3688V39.4992C23.4781 40.2195 24.0621 40.8035 24.7824 40.8035C25.5028 40.8035 26.0867 40.2195 26.0867 39.4992V39.3688C26.0867 38.6484 25.5028 38.0645 24.7824 38.0645Z" fill="#F1CDB3"/>
<path d="M14.9922 41.1512C12.8345 41.1512 11.0792 42.9066 11.0792 45.0642C11.0792 47.2219 12.8345 48.9773 14.9922 48.9773C17.1499 48.9773 18.9052 47.2219 18.9052 45.0642C18.9052 42.9067 17.1499 41.1512 14.9922 41.1512ZM14.9922 46.3687C14.273 46.3687 13.6879 45.7835 13.6879 45.0644C13.6879 44.3452 14.273 43.7601 14.9922 43.7601C15.7114 43.7601 16.2965 44.3452 16.2965 45.0644C16.2965 45.7835 15.7115 46.3687 14.9922 46.3687Z" fill="#F1CDB3"/>
<path d="M21.8456 35.9842C21.8456 33.8266 20.0903 32.0712 17.9326 32.0712C15.7749 32.0712 14.0196 33.8266 14.0196 35.9842C14.0196 38.1419 15.7749 39.8973 17.9326 39.8973C20.0901 39.8974 21.8456 38.1419 21.8456 35.9842ZM17.9325 37.2887C17.2133 37.2887 16.6282 36.7035 16.6282 35.9844C16.6282 35.2652 17.2133 34.6801 17.9325 34.6801C18.6517 34.6801 19.2368 35.2652 19.2368 35.9844C19.2368 36.7035 18.6519 37.2887 17.9325 37.2887Z" fill="#F1CDB3"/>
</svg>
