<svg width="57" height="60" viewBox="0 0 57 60" fill="none" xmlns="http://www.w3.org/2000/svg">
<path d="M55.9526 19.9663L28.9804 0.226256C28.7796 0.0792462 28.5371 0 28.2882 0C28.0393 0 27.7969 0.0792462 27.5961 0.226256L0.623947 19.9663C0.101759 20.3485 -0.0117953 21.0818 0.37047 21.6041L3.89582 26.4211C3.98668 26.5453 4.10113 26.6504 4.23263 26.7304C4.36412 26.8104 4.5101 26.8637 4.6622 26.8872C4.8143 26.9107 4.96955 26.9041 5.11908 26.8676C5.26861 26.8311 5.40947 26.7655 5.53363 26.6745L6.59746 25.8959V58.828C6.59746 59.4751 7.12223 59.9998 7.76934 59.9998H48.8691C49.5162 59.9998 50.041 59.4751 50.041 58.828V25.9413L51.0429 26.6745C51.1671 26.7655 51.308 26.831 51.4575 26.8675C51.607 26.904 51.7622 26.9106 51.9143 26.8871C52.0664 26.8636 52.2123 26.8103 52.3438 26.7303C52.4753 26.6504 52.5898 26.5453 52.6806 26.4211L56.206 21.6041C56.5884 21.0816 56.4748 20.3485 55.9526 19.9663ZM47.6972 53.0856H19.9716C19.3245 53.0856 18.7997 53.6103 18.7997 54.2574C18.7997 54.9045 19.3245 55.4293 19.9716 55.4293H47.6972V57.6562H8.9411V25.105H36.3843C37.0314 25.105 37.5562 24.5803 37.5562 23.9332C37.5562 23.2861 37.0314 22.7613 36.3843 22.7613H10.8813L28.2883 10.0213L47.6972 24.226V53.0856ZM51.4814 24.0911L28.9804 7.62348C28.7796 7.47638 28.5372 7.39712 28.2883 7.39719C28.0394 7.39709 27.7969 7.47636 27.5962 7.62348L5.095 24.0911L2.95387 21.1654L28.2884 2.62391L53.6229 21.1654L51.4814 24.0911Z" fill="#F1CDB3"/>
<path d="M41.7555 23.7046C41.7403 23.6295 41.7168 23.5557 41.6875 23.4842C41.6582 23.4139 41.6219 23.3459 41.5797 23.2826C41.5375 23.2184 41.4888 23.1587 41.4344 23.1045C41.2141 22.8855 40.9165 22.7621 40.6059 22.761C40.2977 22.761 39.9953 22.8864 39.7775 23.1045C39.7236 23.1584 39.6744 23.2182 39.6322 23.2826C39.59 23.3459 39.5537 23.4139 39.5244 23.4842C39.4951 23.5557 39.4716 23.6295 39.4576 23.7046C39.4423 23.7796 39.4341 23.8569 39.4341 23.933C39.4341 24.0092 39.4423 24.0866 39.4576 24.1615C39.4716 24.2364 39.4951 24.3103 39.5244 24.3818C39.5537 24.4523 39.59 24.5202 39.6322 24.5835C39.6744 24.648 39.7236 24.7076 39.7775 24.7616C39.8314 24.8155 39.8912 24.8648 39.9556 24.9069C40.0189 24.949 40.0869 24.9855 40.1583 25.0148C40.2287 25.0441 40.3024 25.0675 40.3775 25.0816C40.4525 25.0968 40.5298 25.1049 40.6059 25.1049C40.6821 25.1049 40.7595 25.0968 40.8344 25.0816C40.9096 25.067 40.983 25.0446 41.0535 25.0148C41.125 24.9855 41.193 24.949 41.2563 24.9069C41.3207 24.8648 41.3804 24.8155 41.4344 24.7616C41.4883 24.7077 41.5375 24.648 41.5797 24.5835C41.6219 24.5202 41.6582 24.4523 41.6875 24.3818C41.7168 24.3105 41.7403 24.2365 41.7555 24.1615C41.7707 24.0865 41.7776 24.0092 41.7776 23.933C41.7776 23.8569 41.7706 23.7795 41.7555 23.7046Z" fill="#F1CDB3"/>
<path d="M16.8986 54.0281C16.8836 53.9531 16.8612 53.8797 16.8319 53.809C16.8026 53.7386 16.7661 53.6695 16.724 53.6063C16.6815 53.5423 16.6329 53.4826 16.5788 53.4281C16.5249 53.3742 16.465 53.3262 16.4006 53.2828C16.2726 53.1978 16.1294 53.1385 15.9788 53.1082C15.8276 53.0777 15.6718 53.0777 15.5206 53.1082C15.4467 53.1234 15.3729 53.1457 15.3014 53.175C15.2311 53.2043 15.1631 53.2406 15.0999 53.2828C15.0354 53.325 14.9755 53.3742 14.9217 53.4281C14.8667 53.482 14.8186 53.543 14.7753 53.6063C14.6903 53.7342 14.631 53.8775 14.6008 54.0281C14.5854 54.1043 14.5785 54.1805 14.5785 54.2566C14.578 54.4106 14.6082 54.5632 14.6674 54.7054C14.6967 54.7758 14.7332 54.8438 14.7753 54.9081C14.8186 54.9714 14.8667 55.0312 14.9217 55.0862C14.9756 55.1403 15.0355 55.1895 15.0999 55.2315C15.1631 55.2737 15.2311 55.3101 15.3014 55.3394C15.3729 55.3686 15.4467 55.3909 15.5206 55.4061C15.5967 55.4214 15.6741 55.4296 15.7503 55.4296C15.9818 55.4286 16.2079 55.3598 16.4006 55.2315C16.4649 55.1894 16.5246 55.1407 16.5788 55.0862C16.6327 55.0312 16.6819 54.9715 16.724 54.9081C16.8524 54.7151 16.9213 54.4885 16.922 54.2566C16.922 54.1805 16.9138 54.1042 16.8986 54.0281Z" fill="#F1CDB3"/>
<path d="M42.8447 30.5741C42.8447 29.5803 42.455 28.6476 41.7472 27.9481C41.0462 27.2554 40.0876 26.8676 39.1101 26.876C38.8019 26.8793 38.4954 26.9208 38.1974 26.9997C36.0274 27.5554 33.9072 28.2902 31.8587 29.1966C30.6888 28.9199 29.4906 28.7806 28.2884 28.7813C27.6114 28.7813 26.9285 28.8257 26.258 28.9133C25.7403 28.9816 25.2264 29.0761 24.7183 29.1966C22.6701 28.2903 20.5503 27.5556 18.3806 26.9999C18.3701 26.997 18.3597 26.9942 18.3492 26.9915C17.1958 26.6978 16.0063 26.9619 15.086 27.7171C14.1658 28.472 13.6744 29.5867 13.7376 30.7745C13.8021 31.9938 13.9221 33.2096 14.097 34.418C14.2542 35.5012 14.4549 36.5776 14.6988 37.6446C14.336 38.5729 14.0832 39.5405 13.9456 40.5276C13.8884 40.9397 13.8595 41.3553 13.8591 41.7714C13.8591 47.0173 18.4337 51.2853 24.0568 51.2853H32.5204C35.6026 51.2853 38.4861 50.0035 40.4317 47.7686C42.2147 45.7205 42.9959 43.1486 42.6314 40.5269C42.5529 39.9648 42.4373 39.4085 42.2852 38.8617C42.1699 38.4498 42.0343 38.0438 41.8788 37.6453C42.3946 35.3878 42.716 33.0901 42.8394 30.7777C42.843 30.7091 42.8447 30.6416 42.8447 30.5741ZM40.4988 30.647L40.4985 30.651C40.3761 32.949 40.0461 35.2312 39.5124 37.4697C39.4543 37.7133 39.4758 37.9692 39.5737 38.1997C39.7523 38.6199 39.9037 39.0511 40.0269 39.4907C40.151 39.937 40.2453 40.391 40.3094 40.8497C40.5792 42.7897 39.9946 44.7004 38.6634 46.2296C37.163 47.9529 34.9239 48.9414 32.5198 48.9414H24.0562C19.7256 48.9414 16.2023 45.7249 16.2023 41.7714C16.2023 41.4679 16.224 41.1574 16.2665 40.8496C16.3939 39.938 16.6413 39.0473 17.0023 38.2007C17.1006 37.9699 17.1222 37.7138 17.0641 37.4698C16.7974 36.3508 16.5811 35.2203 16.4159 34.0819C16.2512 32.9439 16.1382 31.799 16.0775 30.6508C16.0543 30.2148 16.2345 29.806 16.5721 29.5289C16.8194 29.326 17.1199 29.2196 17.4291 29.2196C17.5345 29.2196 17.641 29.2319 17.7468 29.2571L17.7701 29.2633C19.9494 29.8194 22.0752 30.5674 24.1225 31.4985C24.3698 31.6112 24.6485 31.6346 24.9111 31.5646C25.4537 31.4199 26.0052 31.3106 26.562 31.2372C27.1312 31.1628 27.712 31.125 28.2877 31.125C29.4355 31.125 30.5714 31.2729 31.6642 31.5646C31.9265 31.6342 32.2049 31.6114 32.452 31.499C34.5066 30.5646 36.6402 29.8145 38.8274 29.2573C38.9275 29.2333 39.03 29.2207 39.1329 29.2196H39.1482C39.4985 29.2196 39.8444 29.3632 40.0992 29.6149C40.2266 29.74 40.3278 29.8892 40.3967 30.0539C40.4657 30.2186 40.501 30.3955 40.5005 30.574C40.5006 30.5983 40.5001 30.6224 40.4988 30.647Z" fill="#F1CDB3"/>
<path d="M30.4862 43.5662C29.9205 43.5662 29.4602 43.1059 29.4602 42.5403C29.4602 41.8932 28.9355 41.3684 28.2883 41.3684C27.6411 41.3684 27.1164 41.8932 27.1164 42.5403V42.5831C27.1164 43.1487 26.6562 43.609 26.0906 43.609C25.4433 43.609 24.9187 44.1338 24.9187 44.7809C24.9187 45.428 25.4433 45.9528 26.0906 45.9528C26.9413 45.9528 27.7192 45.6356 28.3129 45.1135C28.9199 45.6284 29.6902 45.9107 30.4862 45.9099C31.1333 45.9099 31.658 45.3851 31.658 44.738C31.658 44.0908 31.1333 43.5662 30.4862 43.5662Z" fill="#F1CDB3"/>
<path d="M24.1919 38.1664L22.4512 37.3688C22.2981 37.2985 22.1316 37.2621 21.9631 37.2621C21.7947 37.2621 21.6282 37.2985 21.475 37.3688L19.7342 38.1664C19.1458 38.4359 18.8873 39.1314 19.157 39.7198C19.221 39.8597 19.3121 39.9856 19.4248 40.0904C19.5376 40.1951 19.6698 40.2766 19.8141 40.3302C19.9584 40.3838 20.1118 40.4085 20.2655 40.4028C20.4193 40.3971 20.5705 40.3612 20.7104 40.2971L21.963 39.7232L23.2156 40.2971C23.8037 40.5669 24.4995 40.3082 24.7691 39.7198C25.0388 39.1314 24.7802 38.4358 24.1919 38.1664Z" fill="#F1CDB3"/>
<path d="M36.8423 38.1662L35.1016 37.3686C34.9485 37.2983 34.782 37.262 34.6135 37.262C34.4451 37.262 34.2786 37.2983 34.1255 37.3686L32.3847 38.1662C31.7963 38.4357 31.5378 39.1312 31.8075 39.7196C32.0771 40.3083 32.7726 40.5669 33.3609 40.2969L34.6135 39.723L35.8662 40.2969C36.019 40.3672 36.1853 40.4036 36.3535 40.4036C36.7977 40.4036 37.2225 40.1498 37.4196 39.7196C37.6892 39.1312 37.4308 38.4357 36.8423 38.1662Z" fill="#F1CDB3"/>
</svg>
