<svg width="60" height="57" viewBox="0 0 60 57" fill="none" xmlns="http://www.w3.org/2000/svg">
<path d="M59.985 37.8551L57.1255 18.6441C57.0792 13.0657 53.693 7.89303 47.8159 4.43765C42.9483 1.57605 36.6213 0 30.0001 0C23.3786 0 17.0515 1.57605 12.1838 4.43765C6.3069 7.89303 2.92054 13.0657 2.87437 18.6441L0.0148828 37.8551C0.00503905 37.9216 0 37.9887 0 38.056C0 43.7049 3.76452 48.936 10.3284 52.408C15.7022 55.2504 22.6883 56.8158 30.0001 56.8158C37.3116 56.8158 44.2978 55.2504 49.6716 52.408C56.2354 48.936 60 43.7049 60 38.056C59.9999 37.9888 59.9949 37.9216 59.985 37.8551ZM13.5668 6.78995C18.0215 4.17105 23.8576 2.72871 30.0001 2.72871C36.1424 2.72871 41.9785 4.17105 46.4331 6.78995C51.4956 9.76627 54.3993 14.1293 54.3993 18.7599C54.3993 23.3906 51.4957 27.7535 46.4332 30.7299C41.9785 33.3488 36.1424 34.7911 30.0001 34.7911C23.8577 34.7911 18.0215 33.3488 13.5669 30.7299C8.5044 27.7536 5.60073 23.3906 5.60073 18.7599C5.60073 14.1293 8.50428 9.76639 13.5668 6.78995ZM48.3956 49.996C43.4079 52.6342 36.875 54.0871 30.0001 54.0871C23.125 54.0871 16.592 52.6342 11.6044 49.996C6.00374 47.0333 2.77453 42.7218 2.72917 38.1535L4.60757 25.5342C6.17225 28.4612 8.75283 31.0645 12.1841 33.0819C17.0517 35.9434 23.3787 37.5195 30.0001 37.5195C36.6213 37.5195 42.9485 35.9434 47.816 33.0819C51.2473 31.0645 53.8279 28.461 55.3925 25.5342L57.2709 38.1535C57.2255 42.7219 53.9963 47.0335 48.3956 49.996Z" fill="#F1CDB3"/>
<path d="M30.0001 32.0618C39.3534 32.0618 47.6079 28.4427 50.5397 23.0569C51.29 21.6803 51.6707 20.2344 51.6707 18.7599C51.6707 15.0676 49.3194 11.652 45.0502 9.14217C41.0085 6.76631 35.6637 5.45791 30.0001 5.45791C24.3366 5.45791 18.9916 6.76643 14.9501 9.14229C10.6807 11.6521 8.32945 15.0676 8.32945 18.76C8.32945 20.2347 8.70996 21.6804 9.46008 23.0563C12.3923 28.4427 20.6467 32.0618 30.0001 32.0618ZM30.0001 29.3332C22.1546 29.3332 15.0282 26.5145 12.2557 22.4006C15.0293 18.2891 22.1568 15.4732 30.0001 15.4732C37.8435 15.4732 44.9711 18.2891 47.7446 22.4008C44.9726 26.5145 37.8458 29.3332 30.0001 29.3332ZM11.0579 18.76C11.058 16.0744 12.9313 13.4942 16.3328 11.4945C19.9617 9.36131 24.8154 8.18651 30 8.18651C35.1845 8.18651 40.0384 9.36131 43.6672 11.4946C47.0687 13.4942 48.9421 16.0743 48.9421 18.76C48.9421 18.9993 48.9259 19.238 48.896 19.4761C45.1332 15.3699 37.9658 12.7446 30 12.7446C22.0342 12.7446 14.8669 15.37 11.1041 19.4761C11.0738 19.2386 11.0584 18.9994 11.0579 18.76Z" fill="#F1CDB3"/>
<path d="M30 39.7701C29.8155 39.7701 29.6329 39.8076 29.4633 39.8801C29.2936 39.9527 29.1405 40.059 29.0131 40.1924C28.1243 41.1235 25.225 44.3365 25.225 46.5916C25.225 49.2246 27.367 51.3666 30 51.3666C32.633 51.3666 34.775 49.2246 34.775 46.5916C34.775 44.3365 31.8756 41.1235 30.987 40.1924C30.8595 40.059 30.7064 39.9527 30.5368 39.8801C30.3671 39.8076 30.1845 39.7701 30 39.7701ZM30 48.6381C28.8716 48.6381 27.9536 47.7201 27.9536 46.5917C27.9536 45.986 28.9058 44.5224 30 43.1941C31.0943 44.5226 32.0465 45.986 32.0465 46.5917C32.0465 47.7201 31.1284 48.6381 30 48.6381Z" fill="#F1CDB3"/>
<path d="M23.8843 21.8977H23.4637C22.7102 21.8977 22.0994 22.5085 22.0994 23.262C22.0994 24.0155 22.7102 24.6263 23.4637 24.6263H23.8843C24.6378 24.6263 25.2486 24.0155 25.2486 23.262C25.2486 22.5085 24.6378 21.8977 23.8843 21.8977Z" fill="#F1CDB3"/>
<path d="M40.074 21.8977H30.342C29.5884 21.8977 28.9777 22.5085 28.9777 23.262C28.9777 24.0155 29.5884 24.6263 30.342 24.6263H40.074C40.8275 24.6263 41.4383 24.0155 41.4383 23.262C41.4383 22.5085 40.8275 21.8977 40.074 21.8977Z" fill="#F1CDB3"/>
</svg>
