<svg width="48" height="60" viewBox="0 0 48 60" fill="none" xmlns="http://www.w3.org/2000/svg">
<path d="M46.8978 25.4978L41.1429 9.7473V1.42852C41.1429 0.639609 40.5032 0 39.7144 0H8.28585C7.49694 0 6.85733 0.639727 6.85733 1.42852V9.74719L1.10214 25.4978C0.419274 27.3636 0.0703893 29.335 0.0714747 31.3219V55.0765C0.0714747 57.7913 2.28011 60 4.99499 60H43.005C45.7199 60 47.9285 57.7913 47.9285 55.0765V31.3219C47.9285 29.329 47.5817 27.3694 46.8978 25.4978ZM9.71425 2.85715H38.2857V8.57145H9.71425V2.85715ZM45.0715 50.1321H24.9077C24.1188 50.1321 23.4792 50.7718 23.4792 51.5606C23.4792 52.3495 24.1189 52.9891 24.9077 52.9891H45.0715V55.0763C45.0715 56.2157 44.1445 57.1427 43.005 57.1427H4.99499C3.85558 57.1427 2.92862 56.2158 2.92862 55.0763V31.3219C2.92774 29.6695 3.21788 28.03 3.78573 26.4783L9.28475 11.4286H38.7152L44.2142 26.4783C44.7821 28.03 45.0722 29.6695 45.0714 31.3219L45.0715 50.1321Z" fill="#F1CDB3"/>
<path d="M29.6169 33.805C29.1505 30.8772 26.6078 28.632 23.5505 28.632C20.4932 28.632 17.9504 30.8772 17.484 33.805C15.067 34.7989 13.4857 37.2756 13.6899 39.9659C13.9175 42.9637 16.3506 45.392 19.349 45.6148C20.5071 45.7011 21.6572 45.4628 22.6751 44.9259C23.2315 44.6328 23.8697 44.6326 24.4256 44.926C25.3085 45.3908 26.2914 45.6331 27.2891 45.632C27.4429 45.632 27.5974 45.6263 27.7516 45.6149C30.7502 45.3923 33.1832 42.9638 33.411 39.966C33.6152 37.2756 32.0339 34.7989 29.6169 33.805ZM30.562 39.7495C30.4405 41.35 29.1415 42.6466 27.5402 42.7655C26.9176 42.8126 26.3013 42.6851 25.7586 42.3986C25.0781 42.0394 24.3201 41.8517 23.5506 41.8517C22.781 41.8517 22.0231 42.0394 21.3425 42.3986C20.7999 42.6849 20.1849 42.8123 19.5608 42.7655C17.9597 42.6467 16.6606 41.3501 16.5391 39.7495C16.4143 38.1062 17.5296 36.6124 19.1331 36.2746C19.4588 36.206 19.7503 36.0259 19.9573 35.7653C20.1643 35.5047 20.2739 35.18 20.2671 34.8473L20.2648 34.775C20.2648 32.9632 21.7386 31.4893 23.5505 31.4893C25.3623 31.4893 26.8362 32.9632 26.8362 34.7698L26.834 34.8473C26.827 35.1801 26.9366 35.5048 27.1436 35.7654C27.3507 36.026 27.6423 36.2061 27.968 36.2746C29.5717 36.6124 30.6868 38.1062 30.562 39.7495Z" fill="#F1CDB3"/>
<path d="M23.5506 25.7751C26.1108 25.7751 28.1934 23.6924 28.1934 21.1322C28.1934 18.572 26.1108 16.4893 23.5506 16.4893C20.9904 16.4893 18.9077 18.5721 18.9077 21.1322C18.9077 23.6923 20.9906 25.7751 23.5506 25.7751ZM23.5506 19.3465C24.5353 19.3465 25.3363 20.1475 25.3363 21.1322C25.3363 22.1169 24.5353 22.9179 23.5506 22.9179C22.5659 22.9179 21.7649 22.1169 21.7649 21.1322C21.7649 20.1475 22.566 19.3465 23.5506 19.3465Z" fill="#F1CDB3"/>
<path d="M18.1935 26.6561C18.1935 24.0959 16.1107 22.0132 13.5506 22.0132C10.9905 22.0132 8.90777 24.096 8.90777 26.6561C8.90777 29.2162 10.9904 31.2989 13.5506 31.2989C16.1108 31.2989 18.1935 29.2162 18.1935 26.6561ZM13.5506 28.4418C12.5659 28.4418 11.7649 27.6408 11.7649 26.6561C11.7649 25.6714 12.5659 24.8704 13.5506 24.8704C14.5353 24.8704 15.3363 25.6714 15.3363 26.6561C15.3363 27.6408 14.5352 28.4418 13.5506 28.4418Z" fill="#F1CDB3"/>
<path d="M33.5506 22.0131C30.9904 22.0131 28.9077 24.0959 28.9077 26.656C28.9077 29.216 30.9906 31.2988 33.5506 31.2988C36.1107 31.2988 38.1934 29.2162 38.1934 26.656C38.1934 24.0958 36.1107 22.0131 33.5506 22.0131ZM33.5506 28.4418C32.5658 28.4418 31.7649 27.6408 31.7649 26.6561C31.7649 25.6714 32.5659 24.8704 33.5506 24.8704C34.5353 24.8704 35.3363 25.6714 35.3363 26.6561C35.3363 27.6408 34.5353 28.4418 33.5506 28.4418Z" fill="#F1CDB3"/>
<path d="M18.6934 50.1322H18.3465C17.5576 50.1322 16.918 50.7719 16.918 51.5607C16.918 52.3496 17.5577 52.9892 18.3465 52.9892H18.6934C19.4823 52.9892 20.1219 52.3495 20.1219 51.5607C20.122 50.7719 19.4824 50.1322 18.6934 50.1322Z" fill="#F1CDB3"/>
</svg>
