<svg width="60" height="55" viewBox="0 0 60 55" fill="none" xmlns="http://www.w3.org/2000/svg">
<path d="M54.3108 32.3986C51.0359 31.284 46.7048 30.6702 42.1158 30.6702C41.8289 30.6702 41.5431 30.6725 41.2586 30.6773C36.9894 30.7488 32.991 31.3536 29.9207 32.3986C29.428 32.5653 28.9424 32.7523 28.4651 32.9589V14.2325C28.4651 6.38472 22.0805 0 14.2325 0C6.38461 0 0 6.38472 0 14.2325V39.9261C0 47.7739 6.38461 54.1587 14.2325 54.1587C16.722 54.1587 19.1722 53.5062 21.3188 52.2717C22.6721 51.4934 23.8881 50.4936 24.9168 49.3257C25.6645 50.3761 27.1451 51.4856 29.9208 52.4303C33.1957 53.5448 37.5266 54.1587 42.1157 54.1587C46.7047 54.1587 51.0357 53.5448 54.3107 52.4303C59.0129 50.83 60 48.7566 60 47.299V37.5299C60 36.0723 59.0129 33.9989 54.3108 32.3986ZM26.5754 37.5299C26.5759 37.4863 26.5798 37.4428 26.5871 37.3998L26.5891 37.3882C26.6289 37.1764 26.7563 36.9305 26.9907 36.6639L26.9952 36.6589C27.0307 36.6187 27.0695 36.578 27.1099 36.5368C27.137 36.5096 27.1641 36.4823 27.193 36.4552L27.2271 36.4233C27.4235 36.2422 27.6601 36.0603 27.9332 35.8825C27.9379 35.8794 27.9418 35.8757 27.9464 35.8726C28.5871 35.4565 29.478 35.025 30.6759 34.6173C33.7141 33.5834 37.7769 33.0138 42.1158 33.0138C46.0691 33.0139 49.7904 33.488 52.719 34.3541L27.6397 38.9756C26.8868 38.4213 26.5767 37.9077 26.5754 37.5323V37.5299ZM26.1213 34.2903C25.2179 34.9825 24.7144 35.6857 24.4591 36.3382C24.3731 36.5576 24.3108 36.7855 24.2733 37.0181C24.2561 37.1239 24.2443 37.2305 24.2379 37.3375L24.2359 37.3677C24.2331 37.4224 24.2313 37.4766 24.2313 37.5298V46.3609C22.0289 49.7824 18.315 51.8149 14.2325 51.8149C7.67707 51.8149 2.34375 46.4816 2.34375 39.9261V28.2512H4.6875V34.5793C4.6875 35.2266 5.21227 35.7512 5.85938 35.7512C6.50648 35.7512 7.03125 35.2266 7.03125 34.5793V28.2512H26.1213V34.2903ZM26.1213 25.9075H7.03125V14.2325C7.03125 10.2618 10.2616 7.03125 14.2325 7.03125C18.2034 7.03125 21.4338 10.2618 21.4338 14.2325C21.4338 14.8798 21.9586 15.4044 22.6057 15.4044C23.2529 15.4044 23.7776 14.8798 23.7776 14.2325C23.7776 8.96941 19.4957 4.6875 14.2325 4.6875C8.96941 4.6875 4.6875 8.96941 4.6875 14.2325V25.9075H2.34375V14.2325C2.34375 7.67707 7.67707 2.34375 14.2325 2.34375C20.788 2.34375 26.1213 7.67707 26.1213 14.2325V25.9075ZM57.6562 47.299C57.6562 47.9987 56.5823 49.1814 53.5556 50.2116C50.5174 51.2455 46.4546 51.815 42.1158 51.815C37.7769 51.815 33.7141 51.2456 30.6759 50.2116C27.6492 49.1815 26.5753 47.9988 26.5753 47.299V46.6986L26.5754 46.697V41.0932C27.3962 41.6393 28.4844 42.1724 29.9208 42.6612C33.1957 43.7757 37.5267 44.3896 42.1158 44.3896C46.7048 44.3896 51.0359 43.7757 54.3108 42.6612C55.7471 42.1723 56.8355 41.6393 57.6562 41.0931V47.299ZM53.5556 40.4423C50.5174 41.4763 46.4548 42.0458 42.1158 42.0458C38.1056 42.0458 34.3334 41.5584 31.386 40.6685L56.525 36.036C57.3278 36.6098 57.6562 37.1435 57.6562 37.5299C57.6562 38.2296 56.5823 39.4123 53.5556 40.4423Z" fill="#F1CDB3"/>
<path d="M6.68777 38.402C6.63386 38.3481 6.57421 38.2989 6.50976 38.2567C6.44592 38.2141 6.37801 38.178 6.30702 38.1489C6.23671 38.1196 6.163 38.0973 6.088 38.0821C5.93718 38.0516 5.78179 38.0516 5.63097 38.0821C5.55597 38.0973 5.48214 38.1196 5.41066 38.1489C5.34023 38.1782 5.27238 38.2145 5.2091 38.2567C5.14452 38.2989 5.08476 38.3481 5.03085 38.402C4.97695 38.4559 4.92773 38.5157 4.88554 38.5802C4.84218 38.6434 4.80702 38.7114 4.77773 38.7829C4.74843 38.8532 4.72499 38.927 4.71105 39.002C4.6957 39.077 4.68761 39.1544 4.68761 39.2305C4.68761 39.3079 4.6957 39.3841 4.71105 39.4602C4.72499 39.5352 4.74843 39.6091 4.77773 39.6794C4.80702 39.7497 4.84218 39.8177 4.88554 39.8821C4.92773 39.9454 4.97695 40.0052 5.03085 40.0602C5.19533 40.2232 5.40397 40.3345 5.63097 40.3802C5.70597 40.3954 5.78331 40.4024 5.85949 40.4024C6.01311 40.4028 6.16526 40.3725 6.30702 40.3134C6.37801 40.2842 6.44592 40.2481 6.50976 40.2055C6.57421 40.1622 6.63398 40.1141 6.68788 40.0602C6.74191 40.0052 6.79113 39.9454 6.8332 39.8821C6.87538 39.8177 6.91171 39.7497 6.94101 39.6794C6.97031 39.6091 6.99374 39.5352 7.00898 39.4602C7.02421 39.3841 7.03124 39.3079 7.03124 39.2305C7.03124 38.9223 6.90585 38.62 6.68777 38.402Z" fill="#F1CDB3"/>
</svg>
